HIERARCHY
ROOT Hips
{
  OFFSET 2.26061 22.2878 23.7974
  CHANNELS 6 Xposition Yposition Zposition Zrotation Xrotation Yrotation
  JOINT LeftUpLeg
  {
    OFFSET 8.64259 1.95398 -2.38835
    CHANNELS 3 Zrotation Xrotation Yrotation
    JOINT LeftLeg
    {
      OFFSET 43.7702 0 0
      CHANNELS 3 Zrotation Xrotation Yrotation
      JOINT LeftFoot
      {
        OFFSET 40.6238 0 0
        CHANNELS 3 Zrotation Xrotation Yrotation
        JOINT LeftToeBase
        {
          OFFSET 12.7242 0 0
          CHANNELS 3 Zrotation Xrotation Yrotation
          End Site
          {
            OFFSET 0 0 0
          }
        }
      }
    }
  }
  JOINT RightUpLeg
  {
    OFFSET -8.2249 1.95398 -2.59336
    CHANNELS 3 Zrotation Xrotation Yrotation
    JOINT RightLeg
    {
      OFFSET 43.5653 0 0
      CHANNELS 3 Zrotation Xrotation Yrotation
      JOINT RightFoot
      {
        OFFSET 40.6238 0 0
        CHANNELS 3 Zrotation Xrotation Yrotation
        JOINT RightToeBase
        {
          OFFSET 12.7242 0 0
          CHANNELS 3 Zrotation Xrotation Yrotation
          End Site
          {
            OFFSET 0 0 0
          }
        }
      }
    }
  }
  JOINT Spine
  {
    OFFSET 0.165834 0.87714 6.61349
    CHANNELS 3 Zrotation Xrotation Yrotation
    JOINT Spine1
    {
      OFFSET 7.38963 1.71661e-005 0
      CHANNELS 3 Zrotation Xrotation Yrotation
      JOINT Spine2
      {
        OFFSET 11.9445 1.14441e-005 0
        CHANNELS 3 Zrotation Xrotation Yrotation
        JOINT Spine3
        {
          OFFSET 14.7254 4.19617e-005 0
          CHANNELS 3 Zrotation Xrotation Yrotation
          JOINT Spine4
          {
            OFFSET 10.9679 0 0
            CHANNELS 3 Zrotation Xrotation Yrotation
            JOINT RightShoulder
            {
              OFFSET 2.46616 -1.6653 3.69651
              CHANNELS 3 Zrotation Xrotation Yrotation
              JOINT RightArm
              {
                OFFSET 13.0012 0 0
                CHANNELS 3 Zrotation Xrotation Yrotation
                JOINT RightForeArm
                {
                  OFFSET 28.7848 1.52588e-005 0
                  CHANNELS 3 Zrotation Xrotation Yrotation
                  JOINT RightHand
                  {
                    OFFSET 26.5688 1.52588e-005 0
                    CHANNELS 3 Zrotation Xrotation Yrotation
                    End Site
                    {
                      OFFSET 0 0 0
                    }
                  }
                }
              }
            }
            JOINT LeftShoulder
            {
              OFFSET 2.38034 -1.29275 -3.7523
              CHANNELS 3 Zrotation Xrotation Yrotation
              JOINT LeftArm
              {
                OFFSET 16.3182 6.10351e-005 0
                CHANNELS 3 Zrotation Xrotation Yrotation
                JOINT LeftForeArm
                {
                  OFFSET 27.0901 0 0
                  CHANNELS 3 Zrotation Xrotation Yrotation
                  JOINT LeftHand
                  {
                    OFFSET 24.5451 1.52588e-005 0
                    CHANNELS 3 Zrotation Xrotation Yrotation
                    End Site
                    {
                      OFFSET 0 0 0
                    }
                  }
                }
              }
            }
            JOINT Neck
            {
              OFFSET 5.0226 -0.0266342 0
              CHANNELS 3 Zrotation Xrotation Yrotation
              JOINT Head
              {
                OFFSET 6.69363 2.86102e-005 0
                CHANNELS 3 Zrotation Xrotation Yrotation
                End Site
                {
                  OFFSET 0 0 0
                }
              }
            }
          }
        }
      }
    }
  }
}
MOTION
Frames:	17
Frame Time:	0.0416667
-23.6752 81.3312 9.03667 -4.687 -67.1741 -3.4491 -142.426 68.765 82.2739 -35.2876 8.79037 -13.4425 53.4639 -3.98414 -3.95784 26.9115 -2.81786 9.77189 167.893 60.9873 93.6193 -68.7358 -2.3606 0.0245237 81.944 -11.3788 -4.56031 40.2776 0.497882 -1.92314 0.247345 13.0977 -90.0156 0.678253 0.487572 -0.0101767 -10.9926 0.486643 -0.0316304 -33.5284 0.468084 0.136832 -13.5157 0.468083 0.136821 85.6622 -29.9053 -115.284 12.9352 16.4874 -51.587 24.1598 27.6285 -45.211 -14.3424 0.418052 -9.2226 -117.13 -40.8006 34.6967 12.304 -20.1895 -47.4963 -18.033 -33.774 -28.0643 18.4083 -1.09711 -9.89752 11.1805 6.81325 18.6806 34.2095 1.60228 -2.4936 
-17.4358 83.2895 15.1814 -9.01116 -62.7232 -5.01166 -131.614 71.42 72.1952 -43.6961 8.94526 -14.3888 59.6577 0.306933 2.1976 34.2968 4.08067 10.7486 173.541 57.8596 89.6001 -61.802 -1.90809 -1.36497 78.5284 -10.4996 -4.51694 45.517 0.455769 -4.64444 0.351685 12.7479 -89.9426 1.37748 0.723856 0.134144 -10.2933 0.729064 0.102129 -32.8297 0.650078 0.345489 -12.8171 0.650075 0.34548 84.9581 -34.1739 -114.55 14.3231 17.1428 -50.3515 24.2242 29.2033 -47.0268 -13.6192 0.426645 -9.2006 -116.814 -40.4212 34.8921 2.10121 -19.8904 -47.9123 -12.3683 -22.7342 -34.0161 16.3374 -0.193771 -4.99657 13.2846 8.16623 18.5541 33.9909 2.58167 -2.55395 
-11.5613 84.5667 21.6973 -10.0226 -58.4033 -4.7272 -120.117 71.9335 59.659 -50.9843 8.02492 -13.5816 64.3155 3.54821 1.58008 35.3517 5.07507 11.0578 178.958 54.4825 84.9078 -55.0587 -1.57007 -3.36467 74.7908 -9.47641 -4.40091 49.378 0.032124 -8.60148 0.285205 12.2856 -89.5809 2.29895 0.732374 0.832234 -9.37206 0.768289 0.799181 -31.9058 0.448398 1.01384 -11.8931 0.448409 1.01385 83.3096 -39.1015 -115.22 12.5696 18.3837 -45.5284 26.482 29.15 -50.1822 -13.1794 0.60161 -11.7577 -115.831 -39.8389 35.9009 6.56949 -14.3183 -47.0308 -15.6655 -22.3136 -34.9394 20.3666 -0.515717 -6.52066 13.2245 8.70043 12.4071 36.3291 5.81347 1.2006 
-5.2969 85.6286 28.5453 -9.86065 -56.2203 -3.02839 -121.848 70.3988 58.8719 -54.1092 11.5389 -13.2344 66.5575 6.44351 6.10584 37.9198 7.4638 9.41044 -176.474 49.255 81.1535 -49.1254 -0.974886 -5.95978 67.974 -6.94588 -3.66849 51.529 -0.344085 -11.0102 0.340292 12.0041 -89.5052 2.86066 0.874391 0.976975 -8.81035 0.916543 0.937534 -31.3436 0.540368 1.19457 -11.3309 0.54037 1.19456 83.592 -41.6456 -113.661 13.8027 19.8061 -37.9223 28.5928 27.6789 -57.93 -11.9116 0.599682 -12.4591 -114.328 -39.7366 37.9835 3.4569 -8.01077 -48.5852 -16.2216 -17.4958 -40.8928 25.183 -0.224544 -4.92927 14.9318 10.0221 12.1554 35.3646 7.62879 3.0355 
1.72218 86.6906 34.8996 -11.7775 -56.6789 -1.14317 -131.602 67.8367 66.8106 -56.9786 10.1768 -11.7999 70.813 9.69673 4.66408 38.3586 7.82568 8.32008 -172.088 43.8418 80.0727 -45.0616 -1.70684 -8.64708 54.1651 -2.27669 -1.25198 52.1259 -0.587167 -12.1278 0.439834 11.6798 -89.6388 3.5098 1.02299 0.708397 -8.1609 1.05318 0.662688 -30.6965 0.762794 0.983106 -10.6838 0.762802 0.983091 83.1032 -45.3422 -112.995 8.33177 18.3282 -28.3202 34.2464 27.9999 -61.8634 -9.06659 0.538267 -15.4387 -111.418 -39.2471 41.9283 -3.15386 0.0560686 -45.5948 -12.988 -10.5822 -50.2725 26.9462 0.118943 -3.52626 12.0749 11.2823 11.082 36.1969 10.077 4.91581 
8.60725 87.1384 41.0321 -11.228 -57.498 3.39535 -140.728 65.4269 72.9456 -59.1265 12.4037 -9.66759 70.4548 10.6979 7.56714 41.0274 10.094 6.61379 -166.887 41.6972 79.7617 -47.8014 -5.55988 -11.2716 43.9999 1.46083 1.697 31.8939 0.785405 -16.9365 0.362218 11.2186 -89.9575 4.43644 0.741093 0.0763888 -7.23429 0.743733 0.0436882 -29.7709 0.683867 0.295602 -9.75828 0.683862 0.295598 84.0205 -47.3371 -110.817 4.923 15.705 -16.9645 39.289 25.9029 -67.7007 -6.72591 0.379621 -16.3853 -108.717 -38.6842 45.6411 -7.03622 9.80384 -40.3901 -10.1324 -6.04395 -61.9953 30.1927 1.68176 1.69246 9.82055 12.5719 7.84622 37.3776 12.4834 5.59184 
14.9074 87.2533 47.4478 -7.62063 -58.7039 8.95292 -149.12 60.5249 77.5822 -59.7898 14.002 -7.95227 69.5675 10.7889 8.26489 43.4885 12.1999 6.25256 -163.804 42.3981 80.0014 -56.5166 -12.8647 -12.455 41.984 3.40474 3.3626 27.9456 0.452777 -6.58888 0.0515981 10.8029 -90.1791 5.26816 0.0289322 -0.352356 -6.40283 0.0133918 -0.353301 -28.9377 0.133489 -0.32736 -8.92502 0.133488 -0.327382 86.2247 -50.0342 -106.559 1.74468 13.4435 -7.31833 41.6137 23.215 -71.7361 -1.82561 -0.104689 -18.8551 -106.427 -37.7071 48.6013 -6.6585 20.8899 -36.0404 -6.0844 -3.95507 -72.2572 33.3962 2.20206 2.7272 10.9173 14.6416 -1.75731 32.5986 18.359 12.2226 
21.1469 87.3757 53.7117 -4.45459 -60.2089 13.5883 -154.889 53.6904 80.7715 -58.3819 12.6869 -7.29713 68.7764 9.87033 5.84003 46.754 15.0084 6.21203 -165.744 45.1975 82.6555 -62.1343 -11.5639 -10.0376 45.9715 2.45345 2.30266 32.2269 0.386914 -6.08523 -0.307661 10.4594 -90.375 5.95163 -0.77215 -0.714864 -5.71928 -0.802863 -0.680191 -28.2537 -0.521616 -0.913863 -8.24107 -0.521621 -0.913874 88.482 -48.6005 -103.514 1.96795 11.627 1.43509 42.5875 20.6748 -75.7527 2.37812 -0.654355 -20.9399 -104.175 -36.3429 51.4005 -5.36797 32.2629 -32.8963 -3.21271 -5.8578 -82.5377 31.6718 2.60114 4.421 10.5765 15.7965 -5.8617 28.9733 20.5696 14.5595 
27.8894 88.282 59.9479 -2.27708 -61.5737 17.3384 -159.51 45.1867 83.4775 -52.6841 11.6493 -7.34129 65.6711 7.08664 3.06563 48.0783 16.3481 7.2708 -170.738 48.8015 87.4645 -64.2442 -11.8657 -7.13683 51.3416 1.28353 1.14798 34.8478 0.382044 -8.05008 -0.701912 10.1936 -90.5645 6.47857 -1.64176 -1.05128 -5.19171 -1.68643 -0.977996 -27.7288 -1.24994 -1.49608 -7.71616 -1.24994 -1.49609 91.2774 -45.5199 -99.8419 4.36951 9.58931 6.33164 41.2821 17.8917 -78.5024 6.03144 -0.761936 -18.2417 -103.159 -35.5225 52.5942 -5.80647 41.2557 -28.1551 -4.09598 -8.28888 -90.37 27.3323 1.93561 3.26108 9.2198 17.6474 -8.05759 26.3086 22.8926 16.6253 
34.8036 89.5921 66.4052 -0.785669 -64.7872 18.6219 -163.4 33.6665 85.0481 -43.157 13.3449 -7.48288 57.0382 -0.170878 0.170146 50.8924 18.9051 7.6918 -175.609 50.3944 92.8846 -63.7248 -16.0229 -5.11754 53.8298 1.16675 1.00257 40.7532 0.252739 -8.57638 -1.02828 10.1846 -90.5067 6.49471 -2.26925 -0.915168 -5.17451 -2.30732 -0.814384 -27.7189 -1.88929 -1.55501 -7.70625 -1.8893 -1.55501 92.2509 -44.237 -98.5409 4.30831 6.75912 10.4117 41.0288 15.9335 -79.5821 11.2202 -1.33925 -18.8585 -102.769 -35.3188 53.1217 -3.60863 48.2268 -26.7833 -8.78622 -10.0474 -94.0989 23.0908 1.00244 0.464692 6.43855 19.2942 -10.2292 24.9605 25.3255 20.0399 
41.0844 91.0323 72.921 5.37219 -66.7822 22.3682 -167.424 22.0333 83.9752 -30.663 13.8636 -5.91861 41.3149 -10.2611 -11.8064 47.7359 15.6098 4.85594 178.652 51.3429 97.384 -60.3111 -17.9123 -2.46694 57.9393 0.0113187 0.173609 45.1007 0.0165754 -10.1726 -1.48717 10.1788 -90.3747 6.50742 -3.1298 -0.623622 -5.15983 -3.15421 -0.485143 -27.7192 -2.79758 -1.53607 -7.70652 -2.79758 -1.53608 92.3047 -42.6824 -98.7932 6.1369 3.85482 15.2177 39.6348 13.3058 -81.6854 13.2274 -1.46496 -18.5288 -102.968 -36.5141 53.4441 2.24269 52.7798 -29.3444 -12.6823 -11.5813 -95.9228 12.7339 0.126962 -2.87948 3.38665 20.364 -8.41174 25.4687 25.9505 19.9923 
47.2285 92.5335 79.5342 9.95502 -67.2968 25.3179 -170.566 14.5335 83.1324 -22.1558 19.4506 -4.17659 29.449 -15.8643 -17.6294 37.1723 6.76201 9.25141 172.667 50.569 102.044 -50.5154 -21.0141 1.42234 58.5026 -0.173657 0.166551 51.03 -0.506549 -12.3353 -1.86126 10.0155 -90.2458 6.83752 -3.82257 -0.32822 -4.82779 -3.8333 -0.159414 -27.4029 -3.54699 -1.46329 -7.39027 -3.54698 -1.4633 92.1715 -44.1308 -98.6976 6.90081 0.425855 18.4165 39.242 10.4828 -83.5288 16.9491 -1.72964 -18.053 -103.221 -37.4384 53.5285 1.7193 53.8195 -26.5584 -15.1448 -12.0764 -95.1725 -2.19572 -0.0712944 -7.9489 -0.0136204 21.2905 -9.37637 25.5296 27.3515 22.2772 
53.5562 93.5013 86.3548 13.4092 -67.3452 29.6103 -170.827 15.9353 84.7197 -32.6761 14.2632 -3.42251 37.5404 -11.5204 -12.5628 32.8175 2.5297 13.547 169.627 47.3421 105.568 -37.3719 -21.8069 6.29283 56.4409 0.327274 0.632053 54.4742 -0.148265 -8.893 -2.0934 9.91667 -90.3539 7.03177 -4.33272 -0.509606 -4.63199 -4.35095 -0.31807 -27.2173 -3.97896 -1.79018 -7.20462 -3.97895 -1.79017 92.3643 -46.8665 -97.8058 6.96196 -4.73782 19.5393 38.8237 8.34423 -84.8044 19.3677 -1.77486 -17.2715 -103.919 -38.2408 52.841 -3.09551 52.4284 -19.3897 -14.0708 -11.822 -93.6064 -13.1783 0.639141 -11.8797 -1.06603 22.4424 -11.7191 23.8906 28.9924 25.1104 
59.2957 93.884 92.9059 17.7425 -67.4522 35.4878 -170.429 22.0395 87.9535 -49.1097 11.9035 -2.15482 46.3991 -6.83157 -5.1863 36.9575 6.67629 15.0341 171.28 43.5772 107.358 -29.3924 -17.9739 6.61258 54.0441 1.5322 1.44208 52.8176 0.033113 -7.99971 -2.15535 9.97518 -90.4912 6.90807 -4.51505 -0.77944 -4.75516 -4.54497 -0.579579 -27.3421 -4.07177 -2.10242 -7.32939 -4.07177 -2.10243 92.4561 -48.4725 -97.3412 9.73692 -8.52701 19.7079 41.3791 9.14589 -83.9146 20.0107 -1.8359 -17.2457 -103.102 -39.5902 54.8262 -3.32347 48.8701 -17.2886 -16.5544 -11.1322 -92.6688 -8.36572 0.527267 -16.1299 0.0205066 22.6366 -12.8338 22.8468 29.209 25.3061 
64.8018 93.9257 99.0413 26.4819 -68.1085 42.9007 -169.995 27.6871 89.6809 -61.3982 9.67594 -1.10519 53.7347 -1.78917 -0.271023 40.9349 10.6993 14.8896 174.884 38.7698 104.982 -30.7869 -10.0032 3.5831 57.5133 0.28086 0.413277 38.9734 0.468812 -3.00228 -2.07458 10.0817 -90.3529 6.70057 -4.29427 -0.527309 -4.9633 -4.31333 -0.337455 -27.5475 -3.93697 -1.79543 -7.53485 -3.93697 -1.79545 92.9762 -52.5114 -95.8149 10.1653 -11.3836 20.2069 43.9377 10.9501 -80.3942 20.6311 -1.91094 -17.2857 -103.867 -41.6677 54.6733 -4.17644 42.9714 -13.9456 -15.6551 -10.2296 -91.7616 -6.03194 0.201243 -12.7375 -1.65931 21.0146 -12.2714 25.4929 27.4361 22.7566 
70.2447 93.3267 105.038 39.865 -66.2634 52.6236 -170.103 34.439 89.4493 -67.8147 3.57617 -0.353791 58.8337 2.49786 1.68024 42.1671 11.9389 14.8972 176.222 31.5995 99.9837 -33.6905 -4.55611 1.34983 68.6075 -4.18748 -2.28486 37.2278 0.396038 -2.82275 -1.97991 10.112 -90.2793 6.6429 -4.07369 -0.395076 -5.02168 -4.08713 -0.21511 -27.6019 -3.76638 -1.60281 -7.58923 -3.76637 -1.60282 93.1097 -55.4657 -95.1324 10.6479 -11.5931 23.0739 45.8041 12.0578 -80.2429 20.8061 -1.89797 -17.1104 -105.615 -43.3041 52.8368 -4.32011 36.6103 -12.4561 -12.1923 -9.35346 -89.969 0.122201 -0.235806 -10.3876 -2.62017 18.2646 -9.25055 27.6275 24.1312 19.9083 
75.9911 92.9347 111.017 41.1831 -64.1962 54.3216 -169.264 44.7106 92.2014 -67.1902 -2.22422 -0.326645 64.1131 5.65798 1.00551 40.9519 10.7451 15.2665 176.423 25.1333 98.2511 -29.7249 -1.98062 0.602034 72.1434 -5.84503 -2.96292 39.241 0.433704 -3.45019 -1.4248 9.76062 -90.4843 7.34143 -3.05443 -0.808019 -4.3261 -3.08702 -0.672683 -26.8824 -2.6703 -1.68915 -6.86976 -2.6703 -1.68915 93.8738 -54.2549 -94.2033 14.8773 -11.0155 24.4442 46.1264 13.4434 -79.113 19.5218 -1.93679 -17.7652 -103.88 -41.9278 54.7795 -9.15076 29.3508 -11.3587 -6.62193 -7.94514 -88.1923 1.85847 -0.283573 -9.61353 -2.17588 15.5885 -7.87614 26.8917 20.869 18.1076 
